<svg version="1.1" viewBox="0.0 0.0 807.0 443.0" fill="none" stroke="none" stroke-linecap="square" stroke-miterlimit="10" width="807" height="443" xmlns:xlink="http://www.w3.org/1999/xlink" xmlns="http://www.w3.org/2000/svg"><path fill="#000000" d="M0 0L807.0 0L807.0 443.0L0 443.0L0 0Z" fill-rule="nonzero"/><path stroke="#cccccc" stroke-width="1.0" stroke-linecap="butt" d="M126.5 78.5L126.5 372.5" fill-rule="nonzero"/><path stroke="#333333" stroke-width="1.0" stroke-linecap="butt" d="M338.5 78.5L338.5 372.5" fill-rule="nonzero"/><path stroke="#333333" stroke-width="1.0" stroke-linecap="butt" d="M551.5 78.5L551.5 372.5" fill-rule="nonzero"/><path stroke="#333333" stroke-width="1.0" stroke-linecap="butt" d="M763.5 78.5L763.5 372.5" fill-rule="nonzero"/><path stroke="#000000" stroke-width="1.0" stroke-linecap="butt" stroke-opacity="0.0" d="M197.5 78.5L197.5 372.5" fill-rule="nonzero"/><path stroke="#000000" stroke-width="1.0" stroke-linecap="butt" stroke-opacity="0.0" d="M268.5 78.5L268.5 372.5" fill-rule="nonzero"/><path stroke="#000000" stroke-width="1.0" stroke-linecap="butt" stroke-opacity="0.0" d="M409.5 78.5L409.5 372.5" fill-rule="nonzero"/><path stroke="#000000" stroke-width="1.0" stroke-linecap="butt" stroke-opacity="0.0" d="M480.5 78.5L480.5 372.5" fill-rule="nonzero"/><path stroke="#000000" stroke-width="1.0" stroke-linecap="butt" stroke-opacity="0.0" d="M621.5 78.5L621.5 372.5" fill-rule="nonzero"/><path stroke="#000000" stroke-width="1.0" stroke-linecap="butt" stroke-opacity="0.0" d="M692.5 78.5L692.5 372.5" fill-rule="nonzero"/><clipPath id="id_0"><path d="M126.52967 78.416664L763.5 78.416664L763.5 372.85L126.52967 372.85L126.52967 78.416664Z" clip-rule="nonzero"/></clipPath><path stroke="#000000" stroke-width="2.0" stroke-linecap="butt" stroke-opacity="0.0" clip-path="url(#id_0)" d="M127.0 183.0L127.0 157.0L231.0 157.0C232.10457 157.0 233.0 157.89543 233.0 159.0L233.0 181.0C233.0 182.10457 232.10457 183.0 231.0 183.0Z" fill-rule="nonzero"/><path fill="#fca338" clip-path="url(#id_0)" d="M127.0 183.0L127.0 157.0L231.0 157.0C232.10457 157.0 233.0 157.89543 233.0 159.0L233.0 181.0C233.0 182.10457 232.10457 183.0 231.0 183.0Z" fill-rule="nonzero"/><path stroke="#000000" stroke-width="2.0" stroke-linecap="butt" stroke-opacity="0.0" clip-path="url(#id_0)" d="M127.0 211.0L127.0 185.0L467.0 185.0C468.10458 185.0 469.0 185.89543 469.0 187.0L469.0 209.0C469.0 210.10457 468.10458 211.0 467.0 211.0Z" fill-rule="nonzero"/><path fill="#4a8291" clip-path="url(#id_0)" d="M127.0 211.0L127.0 185.0L467.0 185.0C468.10458 185.0 469.0 185.89543 469.0 187.0L469.0 209.0C469.0 210.10457 468.10458 211.0 467.0 211.0Z" fill-rule="nonzero"/><path stroke="#000000" stroke-width="2.0" stroke-linecap="butt" stroke-opacity="0.0" clip-path="url(#id_0)" d="M127.0 239.0L127.0 213.0L299.0 213.0C300.10458 213.0 301.0 213.89543 301.0 215.0L301.0 237.0C301.0 238.10457 300.10458 239.0 299.0 239.0Z" fill-rule="nonzero"/><path fill="#61bcc1" clip-path="url(#id_0)" d="M127.0 239.0L127.0 213.0L299.0 213.0C300.10458 213.0 301.0 213.89543 301.0 215.0L301.0 237.0C301.0 238.10457 300.10458 239.0 299.0 239.0Z" fill-rule="nonzero"/><path stroke="#000000" stroke-width="2.0" stroke-linecap="butt" stroke-opacity="0.0" clip-path="url(#id_0)" d="M127.0 267.0L127.0 241.0L225.0 241.0C226.10457 241.0 227.0 241.89543 227.0 243.0L227.0 265.0C227.0 266.10458 226.10457 267.0 225.0 267.0Z" fill-rule="nonzero"/><path fill="#b3e0dd" clip-path="url(#id_0)" d="M127.0 267.0L127.0 241.0L225.0 241.0C226.10457 241.0 227.0 241.89543 227.0 243.0L227.0 265.0C227.0 266.10458 226.10457 267.0 225.0 267.0Z" fill-rule="nonzero"/><path stroke="#000000" stroke-width="2.0" stroke-linecap="butt" stroke-opacity="0.0" clip-path="url(#id_0)" d="M127.0 295.0L127.0 269.0L729.0 269.0C730.10455 269.0 731.0 269.89542 731.0 271.0L731.0 293.0C731.0 294.10458 730.10455 295.0 729.0 295.0Z" fill-rule="nonzero"/><path fill="#feff9d" clip-path="url(#id_0)" d="M127.0 295.0L127.0 269.0L729.0 269.0C730.10455 269.0 731.0 269.89542 731.0 271.0L731.0 293.0C731.0 294.10458 730.10455 295.0 729.0 295.0Z" fill-rule="nonzero"/><path stroke="#000000" stroke-width="3.0" stroke-linejoin="round" stroke-linecap="round" d="M248.95702 174.5L247.87889 174.5L247.87889 167.28125L245.69139 168.07812L245.69139 167.09375L248.80077 165.92188L248.95702 165.92188L248.95702 174.5ZM252.53514 173.9375Q252.53514 173.65625 252.69139 173.46875Q252.86327 173.28125 253.19139 173.28125Q253.53514 173.28125 253.70702 173.46875Q253.87889 173.65625 253.87889 173.9375Q253.87889 174.20312 253.70702 174.39062Q253.53514 174.5625 253.19139 174.5625Q252.86327 174.5625 252.69139 174.39062Q252.53514 174.20312 252.53514 173.9375ZM260.7539 170.85938Q260.7539 172.76562 260.09766 173.70312Q259.45703 174.625 258.0664 174.625Q256.70703 174.625 256.05078 173.71875Q255.39452 172.8125 255.36327 171.0L255.36327 169.5625Q255.36327 167.67188 256.0039 166.76562Q256.66016 165.84375 258.05078 165.84375Q259.42578 165.84375 260.08203 166.73438Q260.73828 167.60938 260.7539 169.45312L260.7539 170.85938ZM259.66016 169.375Q259.66016 168.0 259.26953 167.375Q258.89453 166.73438 258.05078 166.73438Q257.22266 166.73438 256.83203 167.375Q256.45703 168.0 256.45703 169.29688L256.45703 171.03125Q256.45703 172.40625 256.84766 173.07812Q257.2539 173.73438 258.0664 173.73438Q258.86328 173.73438 259.2539 173.10938Q259.64453 172.48438 259.66016 171.15625L259.66016 169.375ZM267.7539 170.85938Q267.7539 172.76562 267.09766 173.70312Q266.45703 174.625 265.0664 174.625Q263.70703 174.625 263.05078 173.71875Q262.39453 172.8125 262.36328 171.0L262.36328 169.5625Q262.36328 167.67188 263.0039 166.76562Q263.66016 165.84375 265.05078 165.84375Q266.42578 165.84375 267.08203 166.73438Q267.73828 167.60938 267.7539 169.45312L267.7539 170.85938ZM266.66016 169.375Q266.66016 168.0 266.26953 167.375Q265.89453 166.73438 265.05078 166.73438Q264.22266 166.73438 263.83203 167.375Q263.45703 168.0 263.45703 169.29688L263.45703 171.03125Q263.45703 172.40625 263.84766 173.07812Q264.2539 173.73438 265.0664 173.73438Q265.86328 173.73438 266.2539 173.10938Q266.64453 172.48438 266.66016 171.15625L266.66016 169.375ZM271.64453 170.46875L273.05078 168.15625L274.3164 168.15625L272.23828 171.29688L274.3789 174.5L273.1289 174.5L271.66016 172.125L270.1914 174.5L268.92578 174.5L271.0664 171.29688L269.0039 168.15625L270.2539 168.15625L271.64453 170.46875Z" fill-rule="nonzero"/><path fill="#fca338" d="M248.95702 174.5L247.87889 174.5L247.87889 167.28125L245.69139 168.07812L245.69139 167.09375L248.80077 165.92188L248.95702 165.92188L248.95702 174.5ZM252.53514 173.9375Q252.53514 173.65625 252.69139 173.46875Q252.86327 173.28125 253.19139 173.28125Q253.53514 173.28125 253.70702 173.46875Q253.87889 173.65625 253.87889 173.9375Q253.87889 174.20312 253.70702 174.39062Q253.53514 174.5625 253.19139 174.5625Q252.86327 174.5625 252.69139 174.39062Q252.53514 174.20312 252.53514 173.9375ZM260.7539 170.85938Q260.7539 172.76562 260.09766 173.70312Q259.45703 174.625 258.0664 174.625Q256.70703 174.625 256.05078 173.71875Q255.39452 172.8125 255.36327 171.0L255.36327 169.5625Q255.36327 167.67188 256.0039 166.76562Q256.66016 165.84375 258.05078 165.84375Q259.42578 165.84375 260.08203 166.73438Q260.73828 167.60938 260.7539 169.45312L260.7539 170.85938ZM259.66016 169.375Q259.66016 168.0 259.26953 167.375Q258.89453 166.73438 258.05078 166.73438Q257.22266 166.73438 256.83203 167.375Q256.45703 168.0 256.45703 169.29688L256.45703 171.03125Q256.45703 172.40625 256.84766 173.07812Q257.2539 173.73438 258.0664 173.73438Q258.86328 173.73438 259.2539 173.10938Q259.64453 172.48438 259.66016 171.15625L259.66016 169.375ZM267.7539 170.85938Q267.7539 172.76562 267.09766 173.70312Q266.45703 174.625 265.0664 174.625Q263.70703 174.625 263.05078 173.71875Q262.39453 172.8125 262.36328 171.0L262.36328 169.5625Q262.36328 167.67188 263.0039 166.76562Q263.66016 165.84375 265.05078 165.84375Q266.42578 165.84375 267.08203 166.73438Q267.73828 167.60938 267.7539 169.45312L267.7539 170.85938ZM266.66016 169.375Q266.66016 168.0 266.26953 167.375Q265.89453 166.73438 265.05078 166.73438Q264.22266 166.73438 263.83203 167.375Q263.45703 168.0 263.45703 169.29688L263.45703 171.03125Q263.45703 172.40625 263.84766 173.07812Q264.2539 173.73438 265.0664 173.73438Q265.86328 173.73438 266.2539 173.10938Q266.64453 172.48438 266.66016 171.15625L266.66016 169.375ZM271.64453 170.46875L273.05078 168.15625L274.3164 168.15625L272.23828 171.29688L274.3789 174.5L273.1289 174.5L271.66016 172.125L270.1914 174.5L268.92578 174.5L271.0664 171.29688L269.0039 168.15625L270.2539 168.15625L271.64453 170.46875Z" fill-rule="nonzero"/><path stroke="#000000" stroke-width="3.0" stroke-linejoin="round" stroke-linecap="round" d="M483.16406 197.70312L483.97656 197.70312Q484.7578 197.6875 485.1953 197.29688Q485.6328 196.90625 485.6328 196.23438Q485.6328 194.73438 484.1328 194.73438Q483.4297 194.73438 483.0078 195.14062Q482.60156 195.54688 482.60156 196.20312L481.5078 196.20312Q481.5078 195.1875 482.2422 194.51562Q482.9922 193.84375 484.1328 193.84375Q485.33594 193.84375 486.02344 194.48438Q486.71094 195.125 486.71094 196.26562Q486.71094 196.82812 486.35156 197.34375Q485.9922 197.85938 485.3672 198.125Q486.0703 198.34375 486.4453 198.85938Q486.83594 199.375 486.83594 200.125Q486.83594 201.26562 486.08594 201.95312Q485.33594 202.625 484.1328 202.625Q482.9453 202.625 482.1797 201.96875Q481.4297 201.3125 481.4297 200.25L482.52344 200.25Q482.52344 200.92188 482.96094 201.32812Q483.39844 201.73438 484.14844 201.73438Q484.9297 201.73438 485.33594 201.32812Q485.7578 200.90625 485.7578 200.14062Q485.7578 199.40625 485.3047 199.01562Q484.85156 198.60938 483.97656 198.59375L483.16406 198.59375L483.16406 197.70312ZM488.72656 201.9375Q488.72656 201.65625 488.8828 201.46875Q489.0547 201.28125 489.3828 201.28125Q489.72656 201.28125 489.89844 201.46875Q490.0703 201.65625 490.0703 201.9375Q490.0703 202.20312 489.89844 202.39062Q489.72656 202.5625 489.3828 202.5625Q489.0547 202.5625 488.8828 202.39062Q488.72656 202.20312 488.72656 201.9375ZM497.1797 202.5L491.58594 202.5L491.58594 201.71875L494.53906 198.4375Q495.1953 197.6875 495.4453 197.23438Q495.6953 196.76562 495.6953 196.26562Q495.6953 195.59375 495.28906 195.17188Q494.89844 194.73438 494.21094 194.73438Q493.41406 194.73438 492.96094 195.20312Q492.5078 195.65625 492.5078 196.48438L491.4297 196.48438Q491.4297 195.29688 492.1797 194.57812Q492.9453 193.84375 494.21094 193.84375Q495.41406 193.84375 496.10156 194.46875Q496.78906 195.09375 496.78906 196.14062Q496.78906 197.39062 495.1797 199.14062L492.89844 201.60938L497.1797 201.60938L497.1797 202.5ZM504.1797 202.5L498.58594 202.5L498.58594 201.71875L501.53906 198.4375Q502.1953 197.6875 502.4453 197.23438Q502.6953 196.76562 502.6953 196.26562Q502.6953 195.59375 502.28906 195.17188Q501.89844 194.73438 501.21094 194.73438Q500.41406 194.73438 499.96094 195.20312Q499.5078 195.65625 499.5078 196.48438L498.4297 196.48438Q498.4297 195.29688 499.1797 194.57812Q499.9453 193.84375 501.21094 193.84375Q502.41406 193.84375 503.10156 194.46875Q503.78906 195.09375 503.78906 196.14062Q503.78906 197.39062 502.1797 199.14062L499.89844 201.60938L504.1797 201.60938L504.1797 202.5ZM507.83594 198.46875L509.2422 196.15625L510.5078 196.15625L508.4297 199.29688L510.5703 202.5L509.3203 202.5L507.85156 200.125L506.3828 202.5L505.1172 202.5L507.2578 199.29688L505.1953 196.15625L506.4453 196.15625L507.83594 198.46875Z" fill-rule="nonzero"/><path fill="#4a8291" d="M483.16406 197.70312L483.97656 197.70312Q484.7578 197.6875 485.1953 197.29688Q485.6328 196.90625 485.6328 196.23438Q485.6328 194.73438 484.1328 194.73438Q483.4297 194.73438 483.0078 195.14062Q482.60156 195.54688 482.60156 196.20312L481.5078 196.20312Q481.5078 195.1875 482.2422 194.51562Q482.9922 193.84375 484.1328 193.84375Q485.33594 193.84375 486.02344 194.48438Q486.71094 195.125 486.71094 196.26562Q486.71094 196.82812 486.35156 197.34375Q485.9922 197.85938 485.3672 198.125Q486.0703 198.34375 486.4453 198.85938Q486.83594 199.375 486.83594 200.125Q486.83594 201.26562 486.08594 201.95312Q485.33594 202.625 484.1328 202.625Q482.9453 202.625 482.1797 201.96875Q481.4297 201.3125 481.4297 200.25L482.52344 200.25Q482.52344 200.92188 482.96094 201.32812Q483.39844 201.73438 484.14844 201.73438Q484.9297 201.73438 485.33594 201.32812Q485.7578 200.90625 485.7578 200.14062Q485.7578 199.40625 485.3047 199.01562Q484.85156 198.60938 483.97656 198.59375L483.16406 198.59375L483.16406 197.70312ZM488.72656 201.9375Q488.72656 201.65625 488.8828 201.46875Q489.0547 201.28125 489.3828 201.28125Q489.72656 201.28125 489.89844 201.46875Q490.0703 201.65625 490.0703 201.9375Q490.0703 202.20312 489.89844 202.39062Q489.72656 202.5625 489.3828 202.5625Q489.0547 202.5625 488.8828 202.39062Q488.72656 202.20312 488.72656 201.9375ZM497.1797 202.5L491.58594 202.5L491.58594 201.71875L494.53906 198.4375Q495.1953 197.6875 495.4453 197.23438Q495.6953 196.76562 495.6953 196.26562Q495.6953 195.59375 495.28906 195.17188Q494.89844 194.73438 494.21094 194.73438Q493.41406 194.73438 492.96094 195.20312Q492.5078 195.65625 492.5078 196.48438L491.4297 196.48438Q491.4297 195.29688 492.1797 194.57812Q492.9453 193.84375 494.21094 193.84375Q495.41406 193.84375 496.10156 194.46875Q496.78906 195.09375 496.78906 196.14062Q496.78906 197.39062 495.1797 199.14062L492.89844 201.60938L497.1797 201.60938L497.1797 202.5ZM504.1797 202.5L498.58594 202.5L498.58594 201.71875L501.53906 198.4375Q502.1953 197.6875 502.4453 197.23438Q502.6953 196.76562 502.6953 196.26562Q502.6953 195.59375 502.28906 195.17188Q501.89844 194.73438 501.21094 194.73438Q500.41406 194.73438 499.96094 195.20312Q499.5078 195.65625 499.5078 196.48438L498.4297 196.48438Q498.4297 195.29688 499.1797 194.57812Q499.9453 193.84375 501.21094 193.84375Q502.41406 193.84375 503.10156 194.46875Q503.78906 195.09375 503.78906 196.14062Q503.78906 197.39062 502.1797 199.14062L499.89844 201.60938L504.1797 201.60938L504.1797 202.5ZM507.83594 198.46875L509.2422 196.15625L510.5078 196.15625L508.4297 199.29688L510.5703 202.5L509.3203 202.5L507.85156 200.125L506.3828 202.5L505.1172 202.5L507.2578 199.29688L505.1953 196.15625L506.4453 196.15625L507.83594 198.46875Z" fill-rule="nonzero"/><path stroke="#000000" stroke-width="3.0" stroke-linejoin="round" stroke-linecap="round" d="M317.25394 230.5L316.1758 230.5L316.1758 223.28125L313.9883 224.07812L313.9883 223.09375L317.0977 221.92188L317.25394 221.92188L317.25394 230.5ZM320.83206 229.9375Q320.83206 229.65625 320.9883 229.46875Q321.1602 229.28125 321.4883 229.28125Q321.83206 229.28125 322.00394 229.46875Q322.1758 229.65625 322.1758 229.9375Q322.1758 230.20312 322.00394 230.39062Q321.83206 230.5625 321.4883 230.5625Q321.1602 230.5625 320.9883 230.39062Q320.83206 230.20312 320.83206 229.9375ZM327.95706 221.96875L327.95706 222.875L327.75394 222.875Q326.4883 222.90625 325.7383 223.64062Q324.9883 224.35938 324.8633 225.67188Q325.5508 224.90625 326.70706 224.90625Q327.81644 224.90625 328.4883 225.6875Q329.1602 226.46875 329.1602 227.71875Q329.1602 229.03125 328.44144 229.82812Q327.7227 230.625 326.50394 230.625Q325.2852 230.625 324.51956 229.6875Q323.76956 228.73438 323.76956 227.25L323.76956 226.84375Q323.76956 224.48438 324.76956 223.23438Q325.76956 221.98438 327.75394 221.96875L327.95706 221.96875ZM326.5352 225.8125Q325.9727 225.8125 325.50394 226.14062Q325.0352 226.46875 324.8477 226.98438L324.8477 227.375Q324.8477 228.4375 325.31644 229.07812Q325.8008 229.71875 326.50394 229.71875Q327.2383 229.71875 327.6602 229.1875Q328.08206 228.64062 328.08206 227.76562Q328.08206 226.89062 327.6602 226.35938Q327.2383 225.8125 326.5352 225.8125ZM335.26956 227.64062L336.45706 227.64062L336.45706 228.51562L335.26956 228.51562L335.26956 230.5L334.19144 230.5L334.19144 228.51562L330.3008 228.51562L330.3008 227.875L334.1133 221.96875L335.26956 221.96875L335.26956 227.64062ZM331.5352 227.64062L334.19144 227.64062L334.19144 223.45312L334.0508 223.6875L331.5352 227.64062ZM339.94144 226.46875L341.3477 224.15625L342.6133 224.15625L340.5352 227.29688L342.6758 230.5L341.4258 230.5L339.95706 228.125L338.4883 230.5L337.2227 230.5L339.3633 227.29688L337.3008 224.15625L338.5508 224.15625L339.94144 226.46875Z" fill-rule="nonzero"/><path fill="#61bcc1" d="M317.25394 230.5L316.1758 230.5L316.1758 223.28125L313.9883 224.07812L313.9883 223.09375L317.0977 221.92188L317.25394 221.92188L317.25394 230.5ZM320.83206 229.9375Q320.83206 229.65625 320.9883 229.46875Q321.1602 229.28125 321.4883 229.28125Q321.83206 229.28125 322.00394 229.46875Q322.1758 229.65625 322.1758 229.9375Q322.1758 230.20312 322.00394 230.39062Q321.83206 230.5625 321.4883 230.5625Q321.1602 230.5625 320.9883 230.39062Q320.83206 230.20312 320.83206 229.9375ZM327.95706 221.96875L327.95706 222.875L327.75394 222.875Q326.4883 222.90625 325.7383 223.64062Q324.9883 224.35938 324.8633 225.67188Q325.5508 224.90625 326.70706 224.90625Q327.81644 224.90625 328.4883 225.6875Q329.1602 226.46875 329.1602 227.71875Q329.1602 229.03125 328.44144 229.82812Q327.7227 230.625 326.50394 230.625Q325.2852 230.625 324.51956 229.6875Q323.76956 228.73438 323.76956 227.25L323.76956 226.84375Q323.76956 224.48438 324.76956 223.23438Q325.76956 221.98438 327.75394 221.96875L327.95706 221.96875ZM326.5352 225.8125Q325.9727 225.8125 325.50394 226.14062Q325.0352 226.46875 324.8477 226.98438L324.8477 227.375Q324.8477 228.4375 325.31644 229.07812Q325.8008 229.71875 326.50394 229.71875Q327.2383 229.71875 327.6602 229.1875Q328.08206 228.64062 328.08206 227.76562Q328.08206 226.89062 327.6602 226.35938Q327.2383 225.8125 326.5352 225.8125ZM335.26956 227.64062L336.45706 227.64062L336.45706 228.51562L335.26956 228.51562L335.26956 230.5L334.19144 230.5L334.19144 228.51562L330.3008 228.51562L330.3008 227.875L334.1133 221.96875L335.26956 221.96875L335.26956 227.64062ZM331.5352 227.64062L334.19144 227.64062L334.19144 223.45312L334.0508 223.6875L331.5352 227.64062ZM339.94144 226.46875L341.3477 224.15625L342.6133 224.15625L340.5352 227.29688L342.6758 230.5L341.4258 230.5L339.95706 228.125L338.4883 230.5L337.2227 230.5L339.3633 227.29688L337.3008 224.15625L338.5508 224.15625L339.94144 226.46875Z" fill-rule="nonzero"/><path stroke="#000000" stroke-width="3.0" stroke-linejoin="round" stroke-linecap="round" d="M244.59201 254.85938Q244.59201 256.76562 243.93576 257.70312Q243.29514 258.625 241.90451 258.625Q240.54514 258.625 239.88889 257.71875Q239.23264 256.8125 239.20139 255.0L239.20139 253.5625Q239.20139 251.67188 239.84201 250.76562Q240.49826 249.84375 241.88889 249.84375Q243.26389 249.84375 243.92014 250.73438Q244.57639 251.60938 244.59201 253.45312L244.59201 254.85938ZM243.49826 253.375Q243.49826 252.0 243.10764 251.375Q242.73264 250.73438 241.88889 250.73438Q241.06076 250.73438 240.67014 251.375Q240.29514 252.0 240.29514 253.29688L240.29514 255.03125Q240.29514 256.40625 240.68576 257.07812Q241.09201 257.73438 241.90451 257.73438Q242.70139 257.73438 243.09201 257.10938Q243.48264 256.48438 243.49826 255.15625L243.49826 253.375ZM246.37326 257.9375Q246.37326 257.65625 246.52951 257.46875Q246.70139 257.28125 247.02951 257.28125Q247.37326 257.28125 247.54514 257.46875Q247.71701 257.65625 247.71701 257.9375Q247.71701 258.20312 247.54514 258.39062Q247.37326 258.5625 247.02951 258.5625Q246.70139 258.5625 246.52951 258.39062Q246.37326 258.20312 246.37326 257.9375ZM253.38889 254.75Q253.06076 255.15625 252.57639 255.40625Q252.10764 255.64062 251.54514 255.64062Q250.81076 255.64062 250.26389 255.28125Q249.71701 254.92188 249.42014 254.26562Q249.12326 253.59375 249.12326 252.79688Q249.12326 251.95312 249.43576 251.26562Q249.76389 250.57812 250.35764 250.21875Q250.96701 249.84375 251.76389 249.84375Q253.02951 249.84375 253.74826 250.79688Q254.48264 251.75 254.48264 253.375L254.48264 253.6875Q254.48264 256.1875 253.49826 257.32812Q252.51389 258.46875 250.52951 258.5L250.31076 258.5L250.31076 257.59375L250.54514 257.59375Q251.88889 257.5625 252.60764 256.89062Q253.32639 256.21875 253.38889 254.75ZM251.71701 254.75Q252.26389 254.75 252.71701 254.42188Q253.18576 254.07812 253.40451 253.59375L253.40451 253.15625Q253.40451 252.09375 252.93576 251.42188Q252.46701 250.75 251.76389 250.75Q251.04514 250.75 250.60764 251.29688Q250.18576 251.84375 250.18576 252.75Q250.18576 253.625 250.59201 254.1875Q251.01389 254.75 251.71701 254.75ZM260.81076 255.64062L261.99826 255.64062L261.99826 256.51562L260.81076 256.51562L260.81076 258.5L259.73264 258.5L259.73264 256.51562L255.84201 256.51562L255.84201 255.875L259.6545 249.96875L260.81076 249.96875L260.81076 255.64062ZM257.0764 255.64062L259.73264 255.64062L259.73264 251.45312L259.592 251.6875L257.0764 255.64062ZM265.48264 254.46875L266.8889 252.15625L268.1545 252.15625L266.0764 255.29688L268.217 258.5L266.967 258.5L265.49826 256.125L264.0295 258.5L262.7639 258.5L264.9045 255.29688L262.842 252.15625L264.092 252.15625L265.48264 254.46875Z" fill-rule="nonzero"/><path fill="#b3e0dd" d="M244.59201 254.85938Q244.59201 256.76562 243.93576 257.70312Q243.29514 258.625 241.90451 258.625Q240.54514 258.625 239.88889 257.71875Q239.23264 256.8125 239.20139 255.0L239.20139 253.5625Q239.20139 251.67188 239.84201 250.76562Q240.49826 249.84375 241.88889 249.84375Q243.26389 249.84375 243.92014 250.73438Q244.57639 251.60938 244.59201 253.45312L244.59201 254.85938ZM243.49826 253.375Q243.49826 252.0 243.10764 251.375Q242.73264 250.73438 241.88889 250.73438Q241.06076 250.73438 240.67014 251.375Q240.29514 252.0 240.29514 253.29688L240.29514 255.03125Q240.29514 256.40625 240.68576 257.07812Q241.09201 257.73438 241.90451 257.73438Q242.70139 257.73438 243.09201 257.10938Q243.48264 256.48438 243.49826 255.15625L243.49826 253.375ZM246.37326 257.9375Q246.37326 257.65625 246.52951 257.46875Q246.70139 257.28125 247.02951 257.28125Q247.37326 257.28125 247.54514 257.46875Q247.71701 257.65625 247.71701 257.9375Q247.71701 258.20312 247.54514 258.39062Q247.37326 258.5625 247.02951 258.5625Q246.70139 258.5625 246.52951 258.39062Q246.37326 258.20312 246.37326 257.9375ZM253.38889 254.75Q253.06076 255.15625 252.57639 255.40625Q252.10764 255.64062 251.54514 255.64062Q250.81076 255.64062 250.26389 255.28125Q249.71701 254.92188 249.42014 254.26562Q249.12326 253.59375 249.12326 252.79688Q249.12326 251.95312 249.43576 251.26562Q249.76389 250.57812 250.35764 250.21875Q250.96701 249.84375 251.76389 249.84375Q253.02951 249.84375 253.74826 250.79688Q254.48264 251.75 254.48264 253.375L254.48264 253.6875Q254.48264 256.1875 253.49826 257.32812Q252.51389 258.46875 250.52951 258.5L250.31076 258.5L250.31076 257.59375L250.54514 257.59375Q251.88889 257.5625 252.60764 256.89062Q253.32639 256.21875 253.38889 254.75ZM251.71701 254.75Q252.26389 254.75 252.71701 254.42188Q253.18576 254.07812 253.40451 253.59375L253.40451 253.15625Q253.40451 252.09375 252.93576 251.42188Q252.46701 250.75 251.76389 250.75Q251.04514 250.75 250.60764 251.29688Q250.18576 251.84375 250.18576 252.75Q250.18576 253.625 250.59201 254.1875Q251.01389 254.75 251.71701 254.75ZM260.81076 255.64062L261.99826 255.64062L261.99826 256.51562L260.81076 256.51562L260.81076 258.5L259.73264 258.5L259.73264 256.51562L255.84201 256.51562L255.84201 255.875L259.6545 249.96875L260.81076 249.96875L260.81076 255.64062ZM257.0764 255.64062L259.73264 255.64062L259.73264 251.45312L259.592 251.6875L257.0764 255.64062ZM265.48264 254.46875L266.8889 252.15625L268.1545 252.15625L266.0764 255.29688L268.217 258.5L266.967 258.5L265.49826 256.125L264.0295 258.5L262.7639 258.5L264.9045 255.29688L262.842 252.15625L264.092 252.15625L265.48264 254.46875Z" fill-rule="nonzero"/><path stroke="#000000" stroke-width="3.0" stroke-linejoin="round" stroke-linecap="round" d="M744.0035 282.21875L744.441 277.96875L748.816 277.96875L748.816 278.96875L745.36285 278.96875L745.0972 281.29688Q745.73785 280.92188 746.5347 280.92188Q747.691 280.92188 748.3785 281.70312Q749.066 282.46875 749.066 283.78125Q749.066 285.09375 748.3472 285.85938Q747.6441 286.625 746.36285 286.625Q745.23785 286.625 744.5191 286.0Q743.80035 285.35938 743.7066 284.25L744.7222 284.25Q744.8316 284.98438 745.2535 285.35938Q745.67535 285.73438 746.36285 285.73438Q747.11285 285.73438 747.55035 285.21875Q747.98785 284.70312 747.98785 283.79688Q747.98785 282.9375 747.5191 282.42188Q747.05035 281.90625 746.2691 281.90625Q745.566 281.90625 745.1597 282.20312L744.8785 282.4375L744.0035 282.21875ZM750.6441 285.9375Q750.6441 285.65625 750.80035 285.46875Q750.9722 285.28125 751.30035 285.28125Q751.6441 285.28125 751.816 285.46875Q751.98785 285.65625 751.98785 285.9375Q751.98785 286.20312 751.816 286.39062Q751.6441 286.5625 751.30035 286.5625Q750.9722 286.5625 750.80035 286.39062Q750.6441 286.20312 750.6441 285.9375ZM757.7691 277.96875L757.7691 278.875L757.566 278.875Q756.30035 278.90625 755.55035 279.64062Q754.80035 280.35938 754.67535 281.67188Q755.36285 280.90625 756.5191 280.90625Q757.6285 280.90625 758.30035 281.6875Q758.9722 282.46875 758.9722 283.71875Q758.9722 285.03125 758.2535 285.82812Q757.5347 286.625 756.316 286.625Q755.0972 286.625 754.3316 285.6875Q753.5816 284.73438 753.5816 283.25L753.5816 282.84375Q753.5816 280.48438 754.5816 279.23438Q755.5816 277.98438 757.566 277.96875L757.7691 277.96875ZM756.3472 281.8125Q755.7847 281.8125 755.316 282.14062Q754.8472 282.46875 754.6597 282.98438L754.6597 283.375Q754.6597 284.4375 755.1285 285.07812Q755.61285 285.71875 756.316 285.71875Q757.05035 285.71875 757.4722 285.1875Q757.8941 284.64062 757.8941 283.76562Q757.8941 282.89062 757.4722 282.35938Q757.05035 281.8125 756.3472 281.8125ZM764.6597 282.75Q764.3316 283.15625 763.8472 283.40625Q763.3785 283.64062 762.816 283.64062Q762.0816 283.64062 761.5347 283.28125Q760.98785 282.92188 760.691 282.26562Q760.3941 281.59375 760.3941 280.79688Q760.3941 279.95312 760.7066 279.26562Q761.0347 278.57812 761.6285 278.21875Q762.23785 277.84375 763.0347 277.84375Q764.30035 277.84375 765.0191 278.79688Q765.7535 279.75 765.7535 281.375L765.7535 281.6875Q765.7535 284.1875 764.7691 285.32812Q763.7847 286.46875 761.80035 286.5L761.5816 286.5L761.5816 285.59375L761.816 285.59375Q763.1597 285.5625 763.8785 284.89062Q764.5972 284.21875 764.6597 282.75ZM762.98785 282.75Q763.5347 282.75 763.98785 282.42188Q764.4566 282.07812 764.67535 281.59375L764.67535 281.15625Q764.67535 280.09375 764.2066 279.42188Q763.73785 278.75 763.0347 278.75Q762.316 278.75 761.8785 279.29688Q761.4566 279.84375 761.4566 280.75Q761.4566 281.625 761.86285 282.1875Q762.2847 282.75 762.98785 282.75ZM769.7535 282.46875L771.1597 280.15625L772.42535 280.15625L770.3472 283.29688L772.48785 286.5L771.23785 286.5L769.7691 284.125L768.30035 286.5L767.0347 286.5L769.17535 283.29688L767.11285 280.15625L768.36285 280.15625L769.7535 282.46875Z" fill-rule="nonzero"/><path fill="#feff9d" d="M744.0035 282.21875L744.441 277.96875L748.816 277.96875L748.816 278.96875L745.36285 278.96875L745.0972 281.29688Q745.73785 280.92188 746.5347 280.92188Q747.691 280.92188 748.3785 281.70312Q749.066 282.46875 749.066 283.78125Q749.066 285.09375 748.3472 285.85938Q747.6441 286.625 746.36285 286.625Q745.23785 286.625 744.5191 286.0Q743.80035 285.35938 743.7066 284.25L744.7222 284.25Q744.8316 284.98438 745.2535 285.35938Q745.67535 285.73438 746.36285 285.73438Q747.11285 285.73438 747.55035 285.21875Q747.98785 284.70312 747.98785 283.79688Q747.98785 282.9375 747.5191 282.42188Q747.05035 281.90625 746.2691 281.90625Q745.566 281.90625 745.1597 282.20312L744.8785 282.4375L744.0035 282.21875ZM750.6441 285.9375Q750.6441 285.65625 750.80035 285.46875Q750.9722 285.28125 751.30035 285.28125Q751.6441 285.28125 751.816 285.46875Q751.98785 285.65625 751.98785 285.9375Q751.98785 286.20312 751.816 286.39062Q751.6441 286.5625 751.30035 286.5625Q750.9722 286.5625 750.80035 286.39062Q750.6441 286.20312 750.6441 285.9375ZM757.7691 277.96875L757.7691 278.875L757.566 278.875Q756.30035 278.90625 755.55035 279.64062Q754.80035 280.35938 754.67535 281.67188Q755.36285 280.90625 756.5191 280.90625Q757.6285 280.90625 758.30035 281.6875Q758.9722 282.46875 758.9722 283.71875Q758.9722 285.03125 758.2535 285.82812Q757.5347 286.625 756.316 286.625Q755.0972 286.625 754.3316 285.6875Q753.5816 284.73438 753.5816 283.25L753.5816 282.84375Q753.5816 280.48438 754.5816 279.23438Q755.5816 277.98438 757.566 277.96875L757.7691 277.96875ZM756.3472 281.8125Q755.7847 281.8125 755.316 282.14062Q754.8472 282.46875 754.6597 282.98438L754.6597 283.375Q754.6597 284.4375 755.1285 285.07812Q755.61285 285.71875 756.316 285.71875Q757.05035 285.71875 757.4722 285.1875Q757.8941 284.64062 757.8941 283.76562Q757.8941 282.89062 757.4722 282.35938Q757.05035 281.8125 756.3472 281.8125ZM764.6597 282.75Q764.3316 283.15625 763.8472 283.40625Q763.3785 283.64062 762.816 283.64062Q762.0816 283.64062 761.5347 283.28125Q760.98785 282.92188 760.691 282.26562Q760.3941 281.59375 760.3941 280.79688Q760.3941 279.95312 760.7066 279.26562Q761.0347 278.57812 761.6285 278.21875Q762.23785 277.84375 763.0347 277.84375Q764.30035 277.84375 765.0191 278.79688Q765.7535 279.75 765.7535 281.375L765.7535 281.6875Q765.7535 284.1875 764.7691 285.32812Q763.7847 286.46875 761.80035 286.5L761.5816 286.5L761.5816 285.59375L761.816 285.59375Q763.1597 285.5625 763.8785 284.89062Q764.5972 284.21875 764.6597 282.75ZM762.98785 282.75Q763.5347 282.75 763.98785 282.42188Q764.4566 282.07812 764.67535 281.59375L764.67535 281.15625Q764.67535 280.09375 764.2066 279.42188Q763.73785 278.75 763.0347 278.75Q762.316 278.75 761.8785 279.29688Q761.4566 279.84375 761.4566 280.75Q761.4566 281.625 761.86285 282.1875Q762.2847 282.75 762.98785 282.75ZM769.7535 282.46875L771.1597 280.15625L772.42535 280.15625L770.3472 283.29688L772.48785 286.5L771.23785 286.5L769.7691 284.125L768.30035 286.5L767.0347 286.5L769.17535 283.29688L767.11285 280.15625L768.36285 280.15625L769.7535 282.46875Z" fill-rule="nonzero"/><path fill="#ffffff" d="M425.95233 412.24588L428.7492 419.199L431.53046 412.24588L432.9992 412.24588L432.9992 420.77713L431.8742 420.77713L431.8742 417.449L431.98358 413.87088L429.17108 420.77713L428.3117 420.77713L425.51483 413.8865L425.6242 417.449L425.6242 420.77713L424.4992 420.77713L424.4992 412.24588L425.95233 412.24588ZM438.2492 420.15213Q437.6242 420.90213 436.38983 420.90213Q435.3742 420.90213 434.84296 420.30838Q434.3117 419.71463 434.3117 418.55838L434.3117 414.43338L435.38983 414.43338L435.38983 418.52713Q435.38983 419.98026 436.5617 419.98026Q437.8117 419.98026 438.21796 419.04276L438.21796 414.43338L439.3117 414.43338L439.3117 420.77713L438.28046 420.77713L438.2492 420.15213ZM442.51483 420.77713L441.4367 420.77713L441.4367 411.77713L442.51483 411.77713L442.51483 420.77713ZM445.8117 412.90213L445.8117 414.43338L446.98358 414.43338L446.98358 415.27713L445.8117 415.27713L445.8117 419.199Q445.8117 419.58963 445.96796 419.77713Q446.1242 419.96463 446.4992 419.96463Q446.6867 419.96463 447.01483 419.90213L447.01483 420.77713Q446.59296 420.90213 446.1867 420.90213Q445.46796 420.90213 445.09296 420.46463Q444.71796 420.0115 444.71796 419.199L444.71796 415.27713L443.5617 415.27713L443.5617 414.43338L444.71796 414.43338L444.71796 412.90213L445.8117 412.90213ZM449.51483 420.77713L448.4367 420.77713L448.4367 414.43338L449.51483 414.43338L449.51483 420.77713ZM448.34296 412.7615Q448.34296 412.49588 448.4992 412.30838Q448.67108 412.12088 448.98358 412.12088Q449.29608 412.12088 449.45233 412.30838Q449.6242 412.49588 449.6242 412.7615Q449.6242 413.0115 449.45233 413.199Q449.29608 413.37088 448.98358 413.37088Q448.67108 413.37088 448.4992 413.199Q448.34296 413.0115 448.34296 412.7615ZM456.6867 417.68338Q456.6867 419.12088 456.03046 420.0115Q455.3742 420.90213 454.23358 420.90213Q453.07733 420.90213 452.42108 420.16776L452.42108 423.21463L451.34296 423.21463L451.34296 414.43338L452.32733 414.43338L452.3742 415.1365Q453.04608 414.324 454.21796 414.324Q455.35858 414.324 456.01483 415.18338Q456.6867 416.04276 456.6867 417.574L456.6867 417.68338ZM455.60858 417.55838Q455.60858 416.48026 455.13983 415.87088Q454.6867 415.24588 453.88983 415.24588Q452.90546 415.24588 452.42108 416.10526L452.42108 419.1365Q452.90546 420.0115 453.90546 420.0115Q454.6867 420.0115 455.13983 419.40213Q455.60858 418.77713 455.60858 417.55838ZM459.51483 420.77713L458.4367 420.77713L458.4367 411.77713L459.51483 411.77713L459.51483 420.77713ZM463.96796 420.90213Q462.67108 420.90213 461.85858 420.05838Q461.0617 419.199 461.0617 417.77713L461.0617 417.58963Q461.0617 416.6365 461.42108 415.90213Q461.78046 415.15213 462.42108 414.74588Q463.07733 414.324 463.82733 414.324Q465.0617 414.324 465.7492 415.1365Q466.4367 415.949 466.4367 417.46463L466.4367 417.91776L462.13983 417.91776Q462.17108 418.85526 462.6867 419.43338Q463.21796 420.0115 464.03046 420.0115Q464.59296 420.0115 464.98358 419.77713Q465.38983 419.54276 465.70233 419.15213L466.35858 419.66776Q465.5617 420.90213 463.96796 420.90213ZM463.82733 415.21463Q463.17108 415.21463 462.71796 415.699Q462.28046 416.16776 462.1867 417.02713L465.35858 417.02713L465.35858 416.949Q465.3117 416.12088 464.90546 415.66776Q464.51483 415.21463 463.82733 415.21463Z" fill-rule="nonzero"/><path fill="#ffffff" d="M126.09217 387.20938Q126.09217 389.11563 125.43592 390.05313Q124.795296 390.975 123.40467 390.975Q122.045296 390.975 121.389046 390.06876Q120.732796 389.1625 120.701546 387.35L120.701546 385.9125Q120.701546 384.02188 121.34217 383.11563Q121.99842 382.19376 123.389046 382.19376Q124.764046 382.19376 125.420296 383.08438Q126.076546 383.95938 126.09217 385.80313L126.09217 387.20938ZM124.99842 385.725Q124.99842 384.35 124.607796 383.725Q124.232796 383.08438 123.389046 383.08438Q122.56092 383.08438 122.170296 383.725Q121.795296 384.35 121.795296 385.64688L121.795296 387.38126Q121.795296 388.75626 122.18592 389.42813Q122.59217 390.08438 123.40467 390.08438Q124.201546 390.08438 124.59217 389.45938Q124.982796 388.83438 124.99842 387.50626L124.99842 385.725ZM129.98279 386.81876L131.38904 384.50626L132.65466 384.50626L130.57654 387.64688L132.71716 390.85L131.46716 390.85L129.99841 388.475L128.52966 390.85L127.264046 390.85L129.40466 387.64688L127.34217 384.50626L128.59216 384.50626L129.98279 386.81876Z" fill-rule="nonzero"/><path fill="#ffffff" d="M338.65 390.85L333.05624 390.85L333.05624 390.06876L336.00937 386.7875Q336.66562 386.0375 336.91562 385.58438Q337.16562 385.11563 337.16562 384.61563Q337.16562 383.94376 336.75937 383.52188Q336.36874 383.08438 335.68124 383.08438Q334.88437 383.08438 334.43124 383.55313Q333.97812 384.00626 333.97812 384.83438L332.9 384.83438Q332.9 383.64688 333.65 382.92813Q334.41562 382.19376 335.68124 382.19376Q336.88437 382.19376 337.57187 382.81876Q338.25937 383.44376 338.25937 384.49063Q338.25937 385.74063 336.65 387.49063L334.36874 389.95938L338.65 389.95938L338.65 390.85ZM342.30624 386.81876L343.7125 384.50626L344.97812 384.50626L342.9 387.64688L345.04062 390.85L343.79062 390.85L342.32187 388.475L340.85312 390.85L339.5875 390.85L341.72812 387.64688L339.66562 384.50626L340.91562 384.50626L342.30624 386.81876Z" fill-rule="nonzero"/><path fill="#ffffff" d="M549.9578 387.99063L551.1453 387.99063L551.1453 388.86563L549.9578 388.86563L549.9578 390.85L548.8797 390.85L548.8797 388.86563L544.9891 388.86563L544.9891 388.225L548.8016 382.31876L549.9578 382.31876L549.9578 387.99063ZM546.22345 387.99063L548.8797 387.99063L548.8797 383.80313L548.7391 384.0375L546.22345 387.99063ZM554.6297 386.81876L556.03595 384.50626L557.3016 384.50626L555.22345 387.64688L557.3641 390.85L556.1141 390.85L554.6453 388.475L553.1766 390.85L551.91095 390.85L554.0516 387.64688L551.9891 384.50626L553.2391 384.50626L554.6297 386.81876Z" fill-rule="nonzero"/><path fill="#ffffff" d="M761.96875 382.31876L761.96875 383.225L761.7656 383.225Q760.5 383.25626 759.75 383.99063Q759.0 384.70938 758.875 386.02188Q759.5625 385.25626 760.71875 385.25626Q761.8281 385.25626 762.5 386.0375Q763.1719 386.81876 763.1719 388.06876Q763.1719 389.38126 762.4531 390.17813Q761.7344 390.975 760.5156 390.975Q759.2969 390.975 758.53125 390.0375Q757.78125 389.08438 757.78125 387.6L757.78125 387.19376Q757.78125 384.83438 758.78125 383.58438Q759.78125 382.33438 761.7656 382.31876L761.96875 382.31876ZM760.5469 386.1625Q759.9844 386.1625 759.5156 386.49063Q759.0469 386.81876 758.8594 387.33438L758.8594 387.725Q758.8594 388.7875 759.3281 389.42813Q759.8125 390.06876 760.5156 390.06876Q761.25 390.06876 761.6719 389.5375Q762.09375 388.99063 762.09375 388.11563Q762.09375 387.24063 761.6719 386.70938Q761.25 386.1625 760.5469 386.1625ZM766.9531 386.81876L768.3594 384.50626L769.625 384.50626L767.5469 387.64688L769.6875 390.85L768.4375 390.85L766.96875 388.475L765.5 390.85L764.2344 390.85L766.375 387.64688L764.3125 384.50626L765.5625 384.50626L766.9531 386.81876Z" fill-rule="nonzero"/><path fill="#fca338" d="M22.15 81.916664C22.15 81.36438 22.597715 80.916664 23.15 80.916664L33.15 80.916664C33.702286 80.916664 34.15 81.36438 34.15 81.916664L34.15 91.916664C34.15 92.46895 33.702286 92.916664 33.15 92.916664L23.15 92.916664C22.597715 92.916664 22.15 92.46895 22.15 91.916664Z" fill-rule="nonzero"/><path fill="#ffffff" d="M47.478127 81.46354L48.790627 81.46354L48.790627 88.510414Q48.790627 89.93229 47.93125 90.74479Q47.071877 91.55729 45.65 91.55729Q44.165627 91.55729 43.3375 90.80729Q42.509377 90.041664 42.509377 88.666664L43.821877 88.666664Q43.821877 89.52604 44.290627 90.010414Q44.759377 90.479164 45.65 90.479164Q46.4625 90.479164 46.9625 89.96354Q47.4625 89.447914 47.478127 88.52604L47.478127 81.46354ZM50.775 87.65104Q50.775 86.55729 51.196877 85.697914Q51.634377 84.822914 52.384377 84.354164Q53.15 83.885414 54.134377 83.885414Q55.634377 83.885414 56.571877 84.93229Q57.509377 85.979164 57.509377 87.71354L57.509377 87.80729Q57.509377 88.885414 57.0875 89.74479Q56.68125 90.58854 55.9 91.072914Q55.134377 91.55729 54.15 91.55729Q52.634377 91.55729 51.696877 90.510414Q50.775 89.46354 50.775 87.74479L50.775 87.65104ZM52.040627 87.80729Q52.040627 89.02604 52.603127 89.77604Q53.18125 90.52604 54.15 90.52604Q55.103127 90.52604 55.665627 89.77604Q56.24375 89.010414 56.24375 87.65104Q56.24375 86.43229 55.665627 85.68229Q55.0875 84.916664 54.134377 84.916664Q53.196877 84.916664 52.61875 85.666664Q52.040627 86.416664 52.040627 87.80729ZM60.478127 91.416664L59.2125 91.416664L59.2125 80.916664L60.478127 80.916664L60.478127 91.416664ZM63.821877 82.229164L63.821877 84.02604L65.19688 84.02604L65.19688 84.99479L63.821877 84.99479L63.821877 89.58854Q63.821877 90.02604 64.00938 90.260414Q64.19688 90.479164 64.63438 90.479164Q64.85313 90.479164 65.24375 90.385414L65.24375 91.416664Q64.74375 91.55729 64.275 91.55729Q63.415627 91.55729 62.978127 91.041664Q62.55625 90.52604 62.55625 89.58854L62.55625 84.99479L61.2125 84.99479L61.2125 84.02604L62.55625 84.02604L62.55625 82.229164L63.821877 82.229164Z" fill-rule="nonzero"/><path fill="#4a8291" d="M22.15 108.916664C22.15 108.36438 22.597715 107.916664 23.15 107.916664L33.15 107.916664C33.702286 107.916664 34.15 108.36438 34.15 108.916664L34.15 118.916664C34.15 119.46895 33.702286 119.916664 33.15 119.916664L23.15 119.916664C22.597715 119.916664 22.15 119.46895 22.15 118.916664Z" fill-rule="nonzero"/><path fill="#ffffff" d="M46.24375 113.979164Q44.55625 113.49479 43.775 112.791664Q43.009377 112.072914 43.009377 111.041664Q43.009377 109.86979 43.946877 109.104164Q44.884377 108.322914 46.4 108.322914Q47.415627 108.322914 48.2125 108.729164Q49.025 109.11979 49.4625 109.822914Q49.915627 110.510414 49.915627 111.33854L48.5875 111.33854Q48.5875 110.43229 48.009377 109.916664Q47.446877 109.40104 46.4 109.40104Q45.43125 109.40104 44.884377 109.83854Q44.3375 110.260414 44.3375 111.02604Q44.3375 111.635414 44.853127 112.05729Q45.36875 112.46354 46.603127 112.822914Q47.853127 113.166664 48.55625 113.58854Q49.259377 114.010414 49.5875 114.572914Q49.93125 115.135414 49.93125 115.885414Q49.93125 117.104164 48.978127 117.83854Q48.040627 118.55729 46.4625 118.55729Q45.43125 118.55729 44.540627 118.166664Q43.665627 117.760414 43.18125 117.08854Q42.696877 116.40104 42.696877 115.52604L44.009377 115.52604Q44.009377 116.43229 44.68125 116.96354Q45.353127 117.479164 46.4625 117.479164Q47.509377 117.479164 48.05625 117.05729Q48.603127 116.635414 48.603127 115.90104Q48.603127 115.166664 48.0875 114.77604Q47.5875 114.36979 46.24375 113.979164ZM52.61875 114.52604L52.61875 118.416664L51.30625 118.416664L51.30625 108.46354L54.978127 108.46354Q56.603127 108.46354 57.525 109.30729Q58.4625 110.135414 58.4625 111.510414Q58.4625 112.947914 57.55625 113.74479Q56.65 114.52604 54.9625 114.52604L52.61875 114.52604ZM52.61875 113.447914L54.978127 113.447914Q56.025 113.447914 56.5875 112.947914Q57.15 112.447914 57.15 111.52604Q57.15 110.635414 56.5875 110.104164Q56.025 109.55729 55.05625 109.541664L52.61875 109.541664L52.61875 113.447914ZM64.13438 118.416664L62.86875 118.416664L62.86875 109.99479L60.30625 110.916664L60.30625 109.77604L63.93125 108.416664L64.13438 108.416664L64.13438 118.416664ZM68.05625 114.36979Q68.05625 112.83854 68.4625 111.416664Q68.88438 109.99479 69.69688 108.83854Q70.525 107.666664 71.41563 107.18229L71.66563 108.02604Q70.66563 108.791664 70.025 110.36979Q69.4 111.93229 69.3375 113.86979L69.32188 114.46354Q69.32188 117.104164 70.29063 119.041664Q70.86875 120.197914 71.66563 120.854164L71.41563 121.635414Q70.49375 121.11979 69.66563 119.93229Q68.05625 117.604164 68.05625 114.36979ZM77.13438 118.416664L75.86875 118.416664L75.86875 109.99479L73.30625 110.916664L73.30625 109.77604L76.93125 108.416664L77.13438 108.416664L77.13438 118.416664ZM84.025 114.447914Q84.025 115.96354 83.61875 117.36979Q83.22813 118.760414 82.4 119.947914Q81.57188 121.135414 80.68125 121.635414L80.41563 120.854164Q81.4625 120.05729 82.10313 118.354164Q82.74375 116.65104 82.75938 114.58854L82.75938 114.36979Q82.75938 112.93229 82.44688 111.697914Q82.15 110.46354 81.61875 109.49479Q81.0875 108.510414 80.41563 107.96354L80.68125 107.18229Q81.57188 107.68229 82.38438 108.854164Q83.2125 110.02604 83.61875 111.43229Q84.025 112.83854 84.025 114.447914Z" fill-rule="nonzero"/><path fill="#61bcc1" d="M22.15 135.91667C22.15 135.36438 22.597715 134.91667 23.15 134.91667L33.15 134.91667C33.702286 134.91667 34.15 135.36438 34.15 135.91667L34.15 145.91667C34.15 146.46895 33.702286 146.91667 33.15 146.91667L23.15 146.91667C22.597715 146.91667 22.15 146.46895 22.15 145.91667Z" fill-rule="nonzero"/><path fill="#ffffff" d="M46.24375 140.97917Q44.55625 140.4948 43.775 139.79167Q43.009377 139.07292 43.009377 138.04167Q43.009377 136.8698 43.946877 136.10417Q44.884377 135.32292 46.4 135.32292Q47.415627 135.32292 48.2125 135.72917Q49.025 136.1198 49.4625 136.82292Q49.915627 137.51042 49.915627 138.33855L48.5875 138.33855Q48.5875 137.4323 48.009377 136.91667Q47.446877 136.40105 46.4 136.40105Q45.43125 136.40105 44.884377 136.83855Q44.3375 137.26042 44.3375 138.02605Q44.3375 138.63542 44.853127 139.0573Q45.36875 139.46355 46.603127 139.82292Q47.853127 140.16667 48.55625 140.58855Q49.259377 141.01042 49.5875 141.57292Q49.93125 142.13542 49.93125 142.88542Q49.93125 144.10417 48.978127 144.83855Q48.040627 145.5573 46.4625 145.5573Q45.43125 145.5573 44.540627 145.16667Q43.665627 144.76042 43.18125 144.08855Q42.696877 143.40105 42.696877 142.52605L44.009377 142.52605Q44.009377 143.4323 44.68125 143.96355Q45.353127 144.47917 46.4625 144.47917Q47.509377 144.47917 48.05625 144.0573Q48.603127 143.63542 48.603127 142.90105Q48.603127 142.16667 48.0875 141.77605Q47.5875 141.3698 46.24375 140.97917ZM52.61875 141.52605L52.61875 145.41667L51.30625 145.41667L51.30625 135.46355L54.978127 135.46355Q56.603127 135.46355 57.525 136.3073Q58.4625 137.13542 58.4625 138.51042Q58.4625 139.94792 57.55625 140.7448Q56.65 141.52605 54.9625 141.52605L52.61875 141.52605ZM52.61875 140.44792L54.978127 140.44792Q56.025 140.44792 56.5875 139.94792Q57.15 139.44792 57.15 138.52605Q57.15 137.63542 56.5875 137.10417Q56.025 136.5573 55.05625 136.54167L52.61875 136.54167L52.61875 140.44792ZM64.13438 145.41667L62.86875 145.41667L62.86875 136.9948L60.30625 137.91667L60.30625 136.77605L63.93125 135.41667L64.13438 135.41667L64.13438 145.41667ZM68.05625 141.3698Q68.05625 139.83855 68.4625 138.41667Q68.88438 136.9948 69.69688 135.83855Q70.525 134.66667 71.41563 134.1823L71.66563 135.02605Q70.66563 135.79167 70.025 137.3698Q69.4 138.9323 69.3375 140.8698L69.32188 141.46355Q69.32188 144.10417 70.29063 146.04167Q70.86875 147.19792 71.66563 147.85417L71.41563 148.63542Q70.49375 148.1198 69.66563 146.9323Q68.05625 144.60417 68.05625 141.3698ZM78.32188 142.07292L79.69688 142.07292L79.69688 143.10417L78.32188 143.10417L78.32188 145.41667L77.04063 145.41667L77.04063 143.10417L72.50938 143.10417L72.50938 142.35417L76.9625 135.46355L78.32188 135.46355L78.32188 142.07292ZM73.94688 142.07292L77.04063 142.07292L77.04063 137.19792L76.9 137.46355L73.94688 142.07292ZM84.025 141.44792Q84.025 142.96355 83.61875 144.3698Q83.22813 145.76042 82.4 146.94792Q81.57188 148.13542 80.68125 148.63542L80.41563 147.85417Q81.4625 147.0573 82.10313 145.35417Q82.74375 143.65105 82.75938 141.58855L82.75938 141.3698Q82.75938 139.9323 82.44688 138.69792Q82.15 137.46355 81.61875 136.4948Q81.0875 135.51042 80.41563 134.96355L80.68125 134.1823Q81.57188 134.6823 82.38438 135.85417Q83.2125 137.02605 83.61875 138.4323Q84.025 139.83855 84.025 141.44792Z" fill-rule="nonzero"/><path fill="#b3e0dd" d="M22.15 162.91667C22.15 162.36438 22.597715 161.91667 23.15 161.91667L33.15 161.91667C33.702286 161.91667 34.15 162.36438 34.15 162.91667L34.15 172.91667C34.15 173.46895 33.702286 173.91667 33.15 173.91667L23.15 173.91667C22.597715 173.91667 22.15 173.46895 22.15 172.91667Z" fill-rule="nonzero"/><path fill="#ffffff" d="M46.24375 167.97917Q44.55625 167.4948 43.775 166.79167Q43.009377 166.07292 43.009377 165.04167Q43.009377 163.8698 43.946877 163.10417Q44.884377 162.32292 46.4 162.32292Q47.415627 162.32292 48.2125 162.72917Q49.025 163.1198 49.4625 163.82292Q49.915627 164.51042 49.915627 165.33855L48.5875 165.33855Q48.5875 164.4323 48.009377 163.91667Q47.446877 163.40105 46.4 163.40105Q45.43125 163.40105 44.884377 163.83855Q44.3375 164.26042 44.3375 165.02605Q44.3375 165.63542 44.853127 166.0573Q45.36875 166.46355 46.603127 166.82292Q47.853127 167.16667 48.55625 167.58855Q49.259377 168.01042 49.5875 168.57292Q49.93125 169.13542 49.93125 169.88542Q49.93125 171.10417 48.978127 171.83855Q48.040627 172.5573 46.4625 172.5573Q45.43125 172.5573 44.540627 172.16667Q43.665627 171.76042 43.18125 171.08855Q42.696877 170.40105 42.696877 169.52605L44.009377 169.52605Q44.009377 170.4323 44.68125 170.96355Q45.353127 171.47917 46.4625 171.47917Q47.509377 171.47917 48.05625 171.0573Q48.603127 170.63542 48.603127 169.90105Q48.603127 169.16667 48.0875 168.77605Q47.5875 168.3698 46.24375 167.97917ZM52.61875 168.52605L52.61875 172.41667L51.30625 172.41667L51.30625 162.46355L54.978127 162.46355Q56.603127 162.46355 57.525 163.3073Q58.4625 164.13542 58.4625 165.51042Q58.4625 166.94792 57.55625 167.7448Q56.65 168.52605 54.9625 168.52605L52.61875 168.52605ZM52.61875 167.44792L54.978127 167.44792Q56.025 167.44792 56.5875 166.94792Q57.15 166.44792 57.15 165.52605Q57.15 164.63542 56.5875 164.10417Q56.025 163.5573 55.05625 163.54167L52.61875 163.54167L52.61875 167.44792ZM64.13438 172.41667L62.86875 172.41667L62.86875 163.9948L60.30625 164.91667L60.30625 163.77605L63.93125 162.41667L64.13438 162.41667L64.13438 172.41667ZM68.05625 168.3698Q68.05625 166.83855 68.4625 165.41667Q68.88438 163.9948 69.69688 162.83855Q70.525 161.66667 71.41563 161.1823L71.66563 162.02605Q70.66563 162.79167 70.025 164.3698Q69.4 165.9323 69.3375 167.8698L69.32188 168.46355Q69.32188 171.10417 70.29063 173.04167Q70.86875 174.19792 71.66563 174.85417L71.41563 175.63542Q70.49375 175.1198 69.66563 173.9323Q68.05625 171.60417 68.05625 168.3698ZM77.13438 172.41667L75.86875 172.41667L75.86875 163.9948L73.30625 164.91667L73.30625 163.77605L76.93125 162.41667L77.13438 162.41667L77.13438 172.41667ZM85.94688 162.46355L85.94688 163.52605L85.7125 163.52605Q84.22813 163.5573 83.35313 164.40105Q82.47813 165.2448 82.3375 166.79167Q83.13438 165.88542 84.49375 165.88542Q85.79063 165.88542 86.55625 166.8073Q87.3375 167.71355 87.3375 169.16667Q87.3375 170.71355 86.49375 171.63542Q85.66563 172.5573 84.25938 172.5573Q82.8375 172.5573 81.94688 171.46355Q81.05625 170.35417 81.05625 168.63542L81.05625 168.15105Q81.05625 165.40105 82.22813 163.94792Q83.4 162.4948 85.7125 162.46355L85.94688 162.46355ZM84.275 166.94792Q83.63438 166.94792 83.0875 167.33855Q82.54063 167.71355 82.32188 168.3073L82.32188 168.77605Q82.32188 170.01042 82.86875 170.76042Q83.43125 171.51042 84.25938 171.51042Q85.11875 171.51042 85.60313 170.88542Q86.0875 170.2448 86.0875 169.22917Q86.0875 168.19792 85.5875 167.57292Q85.10313 166.94792 84.275 166.94792ZM92.025 168.44792Q92.025 169.96355 91.61875 171.3698Q91.22813 172.76042 90.4 173.94792Q89.57188 175.13542 88.68125 175.63542L88.41563 174.85417Q89.4625 174.0573 90.10313 172.35417Q90.74375 170.65105 90.75938 168.58855L90.75938 168.3698Q90.75938 166.9323 90.44688 165.69792Q90.15 164.46355 89.61875 163.4948Q89.0875 162.51042 88.41563 161.96355L88.68125 161.1823Q89.57188 161.6823 90.38438 162.85417Q91.2125 164.02605 91.61875 165.4323Q92.025 166.83855 92.025 168.44792Z" fill-rule="nonzero"/><path fill="#feff9d" d="M22.15 189.91667C22.15 189.36438 22.597715 188.91667 23.15 188.91667L33.15 188.91667C33.702286 188.91667 34.15 189.36438 34.15 189.91667L34.15 199.91667C34.15 200.46895 33.702286 200.91667 33.15 200.91667L23.15 200.91667C22.597715 200.91667 22.15 200.46895 22.15 199.91667Z" fill-rule="nonzero"/><path fill="#ffffff" d="M46.9625 195.38542L44.61875 195.38542L44.61875 199.41667L43.30625 199.41667L43.30625 189.46355L46.5875 189.46355Q48.275 189.46355 49.18125 190.22917Q50.0875 190.9948 50.0875 192.46355Q50.0875 193.38542 49.5875 194.07292Q49.0875 194.76042 48.18125 195.10417L50.525 199.33855L50.525 199.41667L49.11875 199.41667L46.9625 195.38542ZM44.61875 194.32292L46.634377 194.32292Q47.61875 194.32292 48.196877 193.82292Q48.775 193.3073 48.775 192.46355Q48.775 191.54167 48.2125 191.0573Q47.665627 190.5573 46.634377 190.54167L44.61875 190.54167L44.61875 194.32292ZM53.7125 199.41667L52.4 199.41667L52.4 189.46355L53.7125 189.46355L53.7125 199.41667ZM59.24375 194.97917Q57.55625 194.4948 56.775 193.79167Q56.009377 193.07292 56.009377 192.04167Q56.009377 190.8698 56.946877 190.10417Q57.884377 189.32292 59.4 189.32292Q60.415627 189.32292 61.2125 189.72917Q62.025 190.1198 62.4625 190.82292Q62.915627 191.51042 62.915627 192.33855L61.5875 192.33855Q61.5875 191.4323 61.009377 190.91667Q60.446877 190.40105 59.4 190.40105Q58.43125 190.40105 57.884377 190.83855Q57.3375 191.26042 57.3375 192.02605Q57.3375 192.63542 57.853127 193.0573Q58.36875 193.46355 59.603127 193.82292Q60.853127 194.16667 61.55625 194.58855Q62.259377 195.01042 62.5875 195.57292Q62.93125 196.13542 62.93125 196.88542Q62.93125 198.10417 61.978127 198.83855Q61.040627 199.5573 59.4625 199.5573Q58.43125 199.5573 57.540627 199.16667Q56.665627 198.76042 56.18125 198.08855Q55.696877 197.40105 55.696877 196.52605L57.009377 196.52605Q57.009377 197.4323 57.68125 197.96355Q58.353127 198.47917 59.4625 198.47917Q60.509377 198.47917 61.05625 198.0573Q61.603127 197.63542 61.603127 196.90105Q61.603127 196.16667 61.0875 195.77605Q60.5875 195.3698 59.24375 194.97917ZM71.63438 196.26042Q71.44688 197.83855 70.4625 198.69792Q69.47813 199.5573 67.85313 199.5573Q66.0875 199.5573 65.025 198.29167Q63.9625 197.02605 63.9625 194.90105L63.9625 193.94792Q63.9625 192.5573 64.4625 191.51042Q64.9625 190.44792 65.86875 189.88542Q66.775 189.32292 67.9625 189.32292Q69.55625 189.32292 70.50938 190.21355Q71.4625 191.10417 71.63438 192.66667L70.30625 192.66667Q70.13438 191.47917 69.55625 190.94792Q68.99375 190.40105 67.9625 190.40105Q66.7125 190.40105 65.99375 191.33855Q65.29063 192.26042 65.29063 193.97917L65.29063 194.94792Q65.29063 196.57292 65.9625 197.52605Q66.63438 198.47917 67.85313 198.47917Q68.94688 198.47917 69.525 197.9948Q70.11875 197.4948 70.30625 196.26042L71.63438 196.26042ZM77.29063 198.33855L82.97813 198.33855L82.97813 199.41667L75.74375 199.41667L75.74375 198.4323L81.19688 190.54167L75.82188 190.54167L75.82188 189.46355L82.75938 189.46355L82.75938 190.4323L77.29063 198.33855ZM87.18125 199.5573Q85.66563 199.5573 84.72813 198.57292Q83.79063 197.57292 83.79063 195.91667L83.79063 195.69792Q83.79063 194.58855 84.2125 193.72917Q84.63438 192.85417 85.38438 192.3698Q86.13438 191.88542 87.025 191.88542Q88.4625 191.88542 89.25938 192.83855Q90.05625 193.77605 90.05625 195.5573L90.05625 196.07292L85.05625 196.07292Q85.07188 197.16667 85.68125 197.85417Q86.30625 198.52605 87.24375 198.52605Q87.91563 198.52605 88.36875 198.26042Q88.8375 197.97917 89.19688 197.52605L89.9625 198.1198Q89.04063 199.5573 87.18125 199.5573ZM87.025 192.91667Q86.25938 192.91667 85.72813 193.47917Q85.2125 194.04167 85.0875 195.04167L88.79063 195.04167L88.79063 194.94792Q88.74375 193.97917 88.275 193.44792Q87.80625 192.91667 87.025 192.91667ZM94.68125 193.15105Q94.4 193.10417 94.05625 193.10417Q92.82188 193.10417 92.36875 194.16667L92.36875 199.41667L91.10313 199.41667L91.10313 192.02605L92.3375 192.02605L92.35313 192.8698Q92.97813 191.88542 94.11875 191.88542Q94.49375 191.88542 94.68125 191.97917L94.68125 193.15105ZM95.775 195.65105Q95.775 194.5573 96.19688 193.69792Q96.63438 192.82292 97.38438 192.35417Q98.15 191.88542 99.13438 191.88542Q100.63438 191.88542 101.57188 192.9323Q102.50938 193.97917 102.50938 195.71355L102.50938 195.8073Q102.50938 196.88542 102.0875 197.7448Q101.68125 198.58855 100.9 199.07292Q100.13438 199.5573 99.15 199.5573Q97.63438 199.5573 96.69688 198.51042Q95.775 197.46355 95.775 195.7448L95.775 195.65105ZM97.04063 195.8073Q97.04063 197.02605 97.60313 197.77605Q98.18125 198.52605 99.15 198.52605Q100.10313 198.52605 100.66563 197.77605Q101.24375 197.01042 101.24375 195.65105Q101.24375 194.4323 100.66563 193.6823Q100.0875 192.91667 99.13438 192.91667Q98.19688 192.91667 97.61875 193.66667Q97.04063 194.41667 97.04063 195.8073Z" fill-rule="nonzero"/><path fill="#ffffff" d="M28.15 62.272278Q28.290625 61.178528 27.009375 60.678528L25.821875 60.241028L25.43125 60.069153Q23.43125 59.162903 23.571875 57.506653Q23.634375 56.678528 24.134375 56.053528Q24.634375 55.412903 25.446875 55.069153Q26.275 54.725403 27.2125 54.741028Q28.11875 54.772278 28.821875 55.162903Q29.525 55.537903 29.884375 56.225403Q30.259375 56.897278 30.228125 57.772278L28.93125 57.756653Q28.99375 56.850403 28.509375 56.350403Q28.040625 55.834778 27.15 55.819153Q26.2125 55.803528 25.5875 56.256653Q24.9625 56.709778 24.86875 57.491028Q24.728125 58.506653 26.11875 59.037903L27.134375 59.397278L27.65 59.616028Q29.571875 60.506653 29.43125 62.256653Q29.353125 63.100403 28.853125 63.709778Q28.36875 64.31915 27.525 64.6629Q26.68125 64.99103 25.7125 64.9754Q24.775 64.95978 23.99375 64.56915Q23.228125 64.17853 22.821875 63.491028Q22.415625 62.803528 22.4625 61.944153L23.74375 61.944153Q23.68125 62.834778 24.228125 63.366028Q24.775 63.881653 25.759375 63.897278Q26.759375 63.912903 27.4 63.475403Q28.040625 63.022278 28.15 62.272278ZM37.978127 64.83478L36.696877 64.83478L37.49375 60.241028L32.634377 60.241028L31.8375 64.83478L30.55625 64.83478L32.290627 54.881653L33.571877 54.881653L32.821877 59.162903L37.68125 59.162903L38.415627 54.881653L39.7125 54.881653L37.978127 64.83478ZM46.36875 62.241028L42.3375 62.241028L40.978127 64.83478L39.603127 64.83478L45.009377 54.881653L46.134377 54.881653L48.103127 64.83478L46.8375 64.83478L46.36875 62.241028ZM42.9 61.162903L46.165627 61.162903L45.353127 56.522278L42.9 61.162903ZM52.571877 61.116028L49.321877 61.116028L49.509377 60.084778L52.759377 60.084778L52.571877 61.116028ZM59.65 64.83478L53.30625 64.83478L53.4625 63.866028L57.134377 60.303528L57.80625 59.631653Q58.946877 58.491028 59.071877 57.506653Q59.165627 56.756653 58.775 56.287903Q58.4 55.803528 57.696877 55.772278Q56.80625 55.756653 56.196877 56.303528Q55.603127 56.850403 55.478127 57.803528L54.24375 57.819153Q54.3375 56.897278 54.80625 56.194153Q55.290627 55.475403 56.05625 55.100403Q56.8375 54.725403 57.74375 54.741028Q58.99375 54.772278 59.7125 55.491028Q60.446877 56.209778 60.3375 57.366028Q60.228127 58.678528 58.8375 60.131653L58.196877 60.756653L55.009377 63.803528L59.80625 63.803528L59.65 64.83478ZM72.13438 61.662903Q71.85313 63.209778 70.74375 64.11603Q69.63438 65.00665 68.0875 64.9754Q67.16563 64.94415 66.4625 64.52228Q65.775 64.08478 65.38438 63.272278Q65.00938 62.444153 64.97813 61.459778Q64.94688 60.897278 65.025 60.366028L65.13438 59.537903Q65.4625 57.303528 66.7125 56.006653Q67.9625 54.709778 69.75938 54.741028Q71.16563 54.772278 71.97813 55.647278Q72.80625 56.522278 72.85313 58.084778L71.57188 58.084778Q71.47813 55.991028 69.93125 55.834778L69.7125 55.819153Q68.41563 55.787903 67.54063 56.787903Q66.68125 57.772278 66.43125 59.491028L66.29063 60.522278L66.24375 61.131653Q66.19688 62.381653 66.68125 63.131653Q67.18125 63.866028 68.15 63.897278Q69.18125 63.928528 69.85313 63.397278Q70.54063 62.866028 70.9 61.678528L72.13438 61.662903ZM75.66563 58.334778Q76.65 57.287903 77.91563 57.303528Q78.94688 57.319153 79.44688 58.022278Q79.94688 58.725403 79.82188 59.991028L79.00938 64.83478L77.775 64.83478L78.5875 59.959778Q78.63438 59.631653 78.60313 59.350403Q78.47813 58.381653 77.47813 58.366028Q76.3375 58.334778 75.50938 59.553528L74.60313 64.83478L73.36875 64.83478L75.18125 54.334778L76.43125 54.334778L75.66563 58.334778ZM85.88438 64.83478Q85.8375 64.63165 85.8375 64.44415L85.85313 64.05353Q84.8375 65.00665 83.69688 64.9754Q82.72813 64.95978 82.10313 64.3504Q81.49375 63.741028 81.55625 62.834778Q81.61875 61.662903 82.57188 61.006653Q83.54063 60.350403 85.10313 60.350403L86.4 60.350403L86.47813 59.756653Q86.55625 59.100403 86.22813 58.709778Q85.9 58.319153 85.25938 58.319153Q84.61875 58.303528 84.11875 58.631653Q83.63438 58.944153 83.525 59.475403L82.29063 59.491028Q82.35313 58.834778 82.79063 58.334778Q83.22813 57.834778 83.93125 57.569153Q84.63438 57.287903 85.36875 57.287903Q86.525 57.319153 87.16563 57.991028Q87.82188 58.662903 87.7125 59.787903L87.11875 63.444153L87.07188 63.975403Q87.05625 64.3504 87.16563 64.7254L87.15 64.83478L85.88438 64.83478ZM83.94688 63.881653Q84.54063 63.897278 85.07188 63.600403Q85.60313 63.303528 85.97813 62.772278L86.24375 61.241028L85.30625 61.241028Q84.15 61.241028 83.525 61.616028Q82.9 61.975403 82.82188 62.647278Q82.75938 63.178528 83.05625 63.522278Q83.36875 63.866028 83.94688 63.881653ZM89.69688 64.83478L88.47813 64.83478L89.75938 57.444153L90.99375 57.444153L89.69688 64.83478ZM90.72813 54.741028Q91.04063 54.725403 91.24375 54.928528Q91.44688 55.131653 91.44688 55.459778Q91.44688 55.772278 91.24375 55.991028Q91.04063 56.194153 90.7125 56.209778Q90.4 56.209778 90.19688 56.022278Q89.99375 55.819153 89.99375 55.506653Q90.00938 55.178528 90.19688 54.975403Q90.4 54.756653 90.72813 54.741028ZM93.82188 57.428528L93.63438 58.366028Q94.63438 57.272278 95.91563 57.303528Q96.94688 57.334778 97.44688 58.037903Q97.94688 58.725403 97.82188 59.991028L97.00938 64.83478L95.775 64.83478L96.5875 59.959778Q96.63438 59.631653 96.60313 59.350403Q96.47813 58.381653 95.47813 58.366028Q94.35313 58.350403 93.50938 59.553528L92.60313 64.83478L91.36875 64.83478L92.65 57.444153L93.82188 57.428528ZM110.66563 59.522278Q110.57188 60.631653 109.9 61.381653Q109.22813 62.116028 108.275 62.100403Q107.41563 62.084778 106.57188 61.319153L106.16563 60.912903Q105.66563 60.459778 105.2125 60.459778Q104.29063 60.444153 103.99375 61.584778L103.93125 61.834778L102.86875 61.850403Q102.97813 60.741028 103.63438 60.037903Q104.30625 59.319153 105.275 59.350403Q106.0875 59.366028 106.82188 60.006653L107.43125 60.569153Q107.9 60.991028 108.3375 60.991028Q108.8375 60.991028 109.19688 60.616028Q109.55625 60.241028 109.68125 59.537903L110.66563 59.522278ZM117.65 64.83478L111.30625 64.83478L111.4625 63.866028L115.13438 60.303528L115.80625 59.631653Q116.94688 58.491028 117.07188 57.506653Q117.16563 56.756653 116.775 56.287903Q116.4 55.803528 115.69688 55.772278Q114.80625 55.756653 114.19688 56.303528Q113.60313 56.850403 113.47813 57.803528L112.24375 57.819153Q112.3375 56.897278 112.80625 56.194153Q113.29063 55.475403 114.05625 55.100403Q114.8375 54.725403 115.74375 54.741028Q116.99375 54.772278 117.7125 55.491028Q118.44688 56.209778 118.3375 57.366028Q118.22813 58.678528 116.8375 60.131653L116.19688 60.756653L113.00938 63.803528L117.80625 63.803528L117.65 64.83478ZM122.72813 56.569153L120.9 59.850403L119.69688 59.850403L122.54063 54.881653L123.38438 54.881653L124.50938 59.850403L123.41563 59.850403L122.72813 56.569153ZM131.65 64.83478L125.30625 64.83478L125.4625 63.866028L129.13437 60.303528L129.80624 59.631653Q130.94687 58.491028 131.07187 57.506653Q131.16562 56.756653 130.775 56.287903Q130.4 55.803528 129.69687 55.772278Q128.80624 55.756653 128.19687 56.303528Q127.60313 56.850403 127.47813 57.803528L126.24375 57.819153Q126.3375 56.897278 126.80625 56.194153Q127.29063 55.475403 128.05624 55.100403Q128.8375 54.725403 129.74374 54.741028Q130.99374 54.772278 131.7125 55.491028Q132.44687 56.209778 132.3375 57.366028Q132.22812 58.678528 130.8375 60.131653L130.19687 60.756653L127.00938 63.803528L131.80624 63.803528L131.65 64.83478ZM139.65 64.83478L133.30624 64.83478L133.4625 63.866028L137.13437 60.303528L137.80624 59.631653Q138.94687 58.491028 139.07187 57.506653Q139.16562 56.756653 138.775 56.287903Q138.4 55.803528 137.69687 55.772278Q136.80624 55.756653 136.19687 56.303528Q135.60312 56.850403 135.47812 57.803528L134.24374 57.819153Q134.3375 56.897278 134.80624 56.194153Q135.29062 55.475403 136.05624 55.100403Q136.8375 54.725403 137.74374 54.741028Q138.99374 54.772278 139.7125 55.491028Q140.44687 56.209778 140.3375 57.366028Q140.22812 58.678528 138.8375 60.131653L138.19687 60.756653L135.00937 63.803528L139.80624 63.803528L139.65 64.83478ZM152.13437 61.662903Q151.85312 63.209778 150.74374 64.11603Q149.63437 65.00665 148.0875 64.9754Q147.16562 64.94415 146.4625 64.52228Q145.775 64.08478 145.38437 63.272278Q145.00937 62.444153 144.97812 61.459778Q144.94687 60.897278 145.025 60.366028L145.13437 59.537903Q145.4625 57.303528 146.7125 56.006653Q147.9625 54.709778 149.75937 54.741028Q151.16562 54.772278 151.97812 55.647278Q152.80624 56.522278 152.85312 58.084778L151.57187 58.084778Q151.47812 55.991028 149.93124 55.834778L149.7125 55.819153Q148.41562 55.787903 147.54062 56.787903Q146.68124 57.772278 146.43124 59.491028L146.29062 60.522278L146.24374 61.131653Q146.19687 62.381653 146.68124 63.131653Q147.18124 63.866028 148.15 63.897278Q149.18124 63.928528 149.85312 63.397278Q150.54062 62.866028 150.9 61.678528L152.13437 61.662903ZM156.00937 62.975403L158.65 57.444153L160.00937 57.444153L155.61874 66.06915Q154.7125 67.86603 153.275 67.8504Q153.025 67.83478 152.525 67.7254L152.63437 66.69415L152.9625 66.7254Q153.54062 66.75665 153.9625 66.45978Q154.4 66.17853 154.72812 65.52228L155.18124 64.67853L153.9 57.444153L155.18124 57.444153L156.00937 62.975403ZM163.49374 63.944153Q164.15 63.959778 164.68124 63.569153Q165.2125 63.162903 165.38437 62.506653L166.55624 62.506653Q166.44687 63.194153 165.99374 63.772278Q165.54062 64.3504 164.8375 64.67853Q164.15 64.99103 163.43124 64.9754Q162.50937 64.95978 161.86874 64.49103Q161.22812 64.02228 160.93124 63.194153Q160.63437 62.350403 160.72812 61.303528L160.75937 60.959778Q160.88437 59.897278 161.36874 59.053528Q161.86874 58.209778 162.66562 57.741028Q163.4625 57.272278 164.41562 57.303528Q165.57187 57.334778 166.275 58.084778Q166.97812 58.834778 166.97812 59.991028L165.82187 59.975403Q165.80624 59.256653 165.41562 58.819153Q165.025 58.366028 164.36874 58.334778Q163.4 58.319153 162.75937 59.053528Q162.11874 59.787903 161.9625 61.116028L161.94687 61.287903Q161.9 61.725403 161.93124 62.194153Q161.97812 62.991028 162.36874 63.459778Q162.775 63.928528 163.49374 63.944153ZM168.69687 64.83478L167.47812 64.83478L169.29062 54.334778L170.525 54.334778L168.69687 64.83478ZM173.55624 64.9754Q172.18124 64.94415 171.4 63.959778Q170.61874 62.959778 170.74374 61.412903L170.775 61.116028Q170.9 60.022278 171.43124 59.116028Q171.9625 58.209778 172.72812 57.756653Q173.50937 57.287903 174.41562 57.303528Q175.55624 57.334778 176.19687 58.069153Q176.85312 58.787903 176.91562 60.037903Q176.93124 60.491028 176.88437 60.928528L176.80624 61.491028L171.97812 61.491028Q171.85312 62.506653 172.30624 63.209778Q172.75937 63.912903 173.66562 63.944153Q174.75937 63.959778 175.68124 62.959778L176.4 63.553528Q175.93124 64.2254 175.19687 64.61603Q174.4625 64.99103 173.55624 64.9754ZM174.35312 58.334778Q173.5875 58.319153 173.00937 58.866028Q172.44687 59.397278 172.10312 60.459778L175.69687 60.459778L175.72812 60.350403Q175.8375 59.491028 175.44687 58.928528Q175.07187 58.350403 174.35312 58.334778ZM181.94687 62.834778Q182.04062 62.069153 181.10312 61.756653L179.82187 61.381653Q178.19687 60.819153 178.24374 59.522278Q178.29062 58.537903 179.13437 57.912903Q179.97812 57.287903 181.11874 57.303528Q182.24374 57.319153 182.94687 57.959778Q183.65 58.600403 183.61874 59.616028L182.38437 59.616028Q182.4 59.053528 182.04062 58.709778Q181.68124 58.366028 181.07187 58.350403Q180.43124 58.334778 179.9625 58.662903Q179.54062 58.975403 179.4625 59.475403Q179.38437 60.116028 180.25937 60.397278L180.86874 60.569153Q182.15 60.897278 182.68124 61.428528Q183.2125 61.959778 183.16562 62.741028Q183.13437 63.428528 182.7125 63.944153Q182.30624 64.44415 181.61874 64.7254Q180.94687 64.99103 180.16562 64.9754Q178.99374 64.95978 178.22812 64.2879Q177.4625 63.616028 177.49374 62.553528L178.72812 62.553528Q178.72812 63.178528 179.11874 63.553528Q179.525 63.928528 180.2125 63.928528Q180.88437 63.944153 181.36874 63.647278Q181.86874 63.350403 181.94687 62.834778Z" fill-rule="nonzero"/><path fill="#ffffff" d="M26.478125 37.05353L31.65 37.05353L31.65 39.33478L22.86875 39.33478L22.86875 37.61603L27.8375 31.053532L23.025 31.053532L23.025 28.772282L31.49375 28.772282L31.49375 30.444157L26.478125 37.05353ZM37.071877 35.100407L36.05625 36.11603L36.05625 39.33478L33.228127 39.33478L33.228127 24.334782L36.05625 24.334782L36.05625 32.64728L36.603127 31.944157L39.30625 28.772282L42.696877 28.772282L38.884377 33.17853L43.025 39.33478L39.790627 39.33478L37.071877 35.100407ZM49.68125 35.80353L52.9 25.116032L56.165627 25.116032L51.2125 39.33478L48.15 39.33478L43.2125 25.116032L46.478127 25.116032L49.68125 35.80353ZM61.24375 25.116032L64.9 35.42853L68.54063 25.116032L72.38438 25.116032L72.38438 39.33478L69.44688 39.33478L69.44688 35.444157L69.72813 28.741032L65.9 39.33478L63.884377 39.33478L60.05625 28.741032L60.353127 35.444157L60.353127 39.33478L57.415627 39.33478L57.415627 25.116032L61.24375 25.116032ZM83.35313 34.319157L83.35313 39.33478L80.41563 39.33478L80.41563 25.116032L85.9625 25.116032Q87.57188 25.116032 88.775 25.709782Q89.99375 26.287907 90.65 27.366032Q91.30625 28.444157 91.30625 29.819157Q91.30625 31.912907 89.86875 33.11603Q88.44688 34.319157 85.91563 34.319157L83.35313 34.319157ZM83.35313 31.944157L85.9625 31.944157Q87.13438 31.944157 87.74375 31.397282Q88.35313 30.850407 88.35313 29.834782Q88.35313 28.803532 87.72813 28.162907Q87.11875 27.506657 86.04063 27.491032L83.35313 27.491032L83.35313 31.944157ZM99.16563 31.412907Q98.60313 31.334782 98.15 31.334782Q96.55625 31.334782 96.05625 32.412907L96.05625 39.33478L93.22813 39.33478L93.22813 28.772282L95.9 28.772282L95.97813 30.022282Q96.82188 28.569157 98.3375 28.569157Q98.80625 28.569157 99.2125 28.694157L99.16563 31.412907ZM99.79063 33.95978Q99.79063 32.381657 100.4 31.147282Q101.00938 29.912907 102.13438 29.241032Q103.275 28.569157 104.79063 28.569157Q106.93125 28.569157 108.275 29.881657Q109.63438 31.194157 109.79063 33.42853L109.80625 34.162907Q109.80625 36.58478 108.44688 38.069157Q107.0875 39.537907 104.80625 39.537907Q102.525 39.537907 101.15 38.069157Q99.79063 36.600407 99.79063 34.08478L99.79063 33.95978ZM102.61875 34.162907Q102.61875 35.662907 103.18125 36.45978Q103.74375 37.256657 104.80625 37.256657Q105.8375 37.256657 106.4 36.475407Q106.97813 35.67853 106.97813 33.95978Q106.97813 32.475407 106.4 31.662907Q105.8375 30.850407 104.79063 30.850407Q103.74375 30.850407 103.18125 31.662907Q102.61875 32.475407 102.61875 34.162907ZM115.19688 35.881657L117.15 28.772282L120.10313 28.772282L116.54063 39.33478L113.8375 39.33478L110.275 28.772282L113.22813 28.772282L115.19688 35.881657ZM124.2125 39.33478L121.38438 39.33478L121.38438 28.772282L124.2125 28.772282L124.2125 39.33478ZM121.2125 26.037907Q121.2125 25.397282 121.63438 24.991032Q122.07188 24.584782 122.79063 24.584782Q123.525 24.584782 123.94688 24.991032Q124.38438 25.397282 124.38438 26.037907Q124.38438 26.678532 123.94688 27.084782Q123.50938 27.491032 122.79063 27.491032Q122.0875 27.491032 121.65 27.084782Q121.2125 26.678532 121.2125 26.037907ZM128.8375 28.772282L128.91562 29.991032Q130.05624 28.569157 131.9625 28.569157Q133.63437 28.569157 134.44687 29.553532Q135.275 30.537907 135.29062 32.506657L135.29062 39.33478L132.47812 39.33478L132.47812 32.569157Q132.47812 31.678532 132.0875 31.272282Q131.69687 30.866032 130.79062 30.866032Q129.5875 30.866032 128.99374 31.881657L128.99374 39.33478L126.18125 39.33478L126.18125 28.772282L128.8375 28.772282ZM136.82187 33.975407Q136.82187 31.537907 137.97812 30.053532Q139.13437 28.569157 141.10312 28.569157Q142.8375 28.569157 143.80624 29.756657L143.93124 28.772282L146.47812 28.772282L146.47812 38.975407Q146.47812 40.36603 145.85312 41.39728Q145.22812 42.42853 144.07187 42.95978Q142.93124 43.49103 141.4 43.49103Q140.24374 43.49103 139.13437 43.02228Q138.04062 42.569157 137.4625 41.83478L138.7125 40.11603Q139.775 41.30353 141.275 41.30353Q142.4 41.30353 143.025 40.694157Q143.65 40.100407 143.65 38.99103L143.65 38.42853Q142.68124 39.537907 141.0875 39.537907Q139.18124 39.537907 137.99374 38.05353Q136.82187 36.55353 136.82187 34.08478L136.82187 33.975407ZM139.65 34.17853Q139.65 35.61603 140.22812 36.42853Q140.80624 37.24103 141.80624 37.24103Q143.0875 37.24103 143.65 36.27228L143.65 31.834782Q143.0875 30.866032 141.82187 30.866032Q140.80624 30.866032 140.22812 31.694157Q139.65 32.52228 139.65 34.17853ZM164.11874 27.491032L159.775 27.491032L159.775 39.33478L156.8375 39.33478L156.8375 27.491032L152.54062 27.491032L152.54062 25.116032L164.11874 25.116032L164.11874 27.491032ZM168.2125 39.33478L165.38437 39.33478L165.38437 28.772282L168.2125 28.772282L168.2125 39.33478ZM165.2125 26.037907Q165.2125 25.397282 165.63437 24.991032Q166.07187 24.584782 166.79062 24.584782Q167.525 24.584782 167.94687 24.991032Q168.38437 25.397282 168.38437 26.037907Q168.38437 26.678532 167.94687 27.084782Q167.50937 27.491032 166.79062 27.491032Q166.0875 27.491032 165.65 27.084782Q165.2125 26.678532 165.2125 26.037907ZM172.88437 28.772282L172.9625 29.944157Q174.0875 28.569157 176.00937 28.569157Q178.04062 28.569157 178.80624 30.178532Q179.91562 28.569157 181.97812 28.569157Q183.69687 28.569157 184.54062 29.569157Q185.38437 30.569157 185.38437 32.58478L185.38437 39.33478L182.55624 39.33478L182.55624 32.600407Q182.55624 31.694157 182.19687 31.287907Q181.85312 30.866032 180.9625 30.866032Q179.68124 30.866032 179.19687 32.08478L179.2125 39.33478L176.38437 39.33478L176.38437 32.600407Q176.38437 31.694157 176.025 31.287907Q175.66562 30.866032 174.79062 30.866032Q173.5875 30.866032 173.05624 31.866032L173.05624 39.33478L170.22812 39.33478L170.22812 28.772282L172.88437 28.772282ZM192.10312 39.537907Q189.775 39.537907 188.30624 38.11603Q186.85312 36.67853 186.85312 34.30353L186.85312 34.037907Q186.85312 32.444157 187.4625 31.194157Q188.0875 29.928532 189.2125 29.256657Q190.3375 28.569157 191.79062 28.569157Q193.94687 28.569157 195.19687 29.944157Q196.44687 31.303532 196.44687 33.819157L196.44687 34.975407L189.7125 34.975407Q189.85312 36.006657 190.54062 36.631657Q191.22812 37.256657 192.29062 37.256657Q193.91562 37.256657 194.8375 36.069157L196.2125 37.631657Q195.5875 38.52228 194.49374 39.037907Q193.41562 39.537907 192.10312 39.537907ZM191.775 30.850407Q190.93124 30.850407 190.4 31.428532Q189.88437 31.991032 189.74374 33.037907L193.66562 33.037907L193.66562 32.819157Q193.65 31.881657 193.16562 31.366032Q192.68124 30.850407 191.775 30.850407ZM207.19687 35.881657L209.15 28.772282L212.10312 28.772282L208.54062 39.33478L205.8375 39.33478L202.275 28.772282L205.22812 28.772282L207.19687 35.881657ZM218.9625 36.412907Q218.9625 35.89728 218.44687 35.600407Q217.93124 35.30353 216.80624 35.069157Q213.025 34.27228 213.025 31.866032Q213.025 30.459782 214.19687 29.522282Q215.36874 28.569157 217.24374 28.569157Q219.25937 28.569157 220.4625 29.522282Q221.66562 30.459782 221.66562 31.975407L218.85312 31.975407Q218.85312 31.381657 218.4625 30.991032Q218.07187 30.584782 217.24374 30.584782Q216.525 30.584782 216.13437 30.912907Q215.74374 31.225407 215.74374 31.725407Q215.74374 32.194157 216.18124 32.49103Q216.63437 32.77228 217.68124 32.99103Q218.74374 33.194157 219.4625 33.45978Q221.69687 34.27228 221.69687 36.30353Q221.69687 37.74103 220.4625 38.64728Q219.22812 39.537907 217.25937 39.537907Q215.93124 39.537907 214.9 39.069157Q213.86874 38.58478 213.275 37.756657Q212.69687 36.92853 212.69687 35.975407L215.36874 35.975407Q215.41562 36.725407 215.93124 37.131657Q216.44687 37.52228 217.32187 37.52228Q218.13437 37.52228 218.54062 37.225407Q218.9625 36.912907 218.9625 36.412907ZM234.15 25.116032L237.0875 25.116032L237.0875 34.95978Q237.0875 36.319157 236.47812 37.36603Q235.88437 38.39728 234.79062 38.975407Q233.69687 39.537907 232.32187 39.537907Q230.05624 39.537907 228.79062 38.39728Q227.54062 37.24103 227.54062 35.131657L230.49374 35.131657Q230.49374 36.17853 230.93124 36.67853Q231.36874 37.17853 232.32187 37.17853Q233.15 37.17853 233.65 36.600407Q234.15 36.02228 234.15 34.95978L234.15 25.116032ZM238.79062 33.95978Q238.79062 32.381657 239.4 31.147282Q240.00937 29.912907 241.13437 29.241032Q242.275 28.569157 243.79062 28.569157Q245.93124 28.569157 247.275 29.881657Q248.63437 31.194157 248.79062 33.42853L248.80624 34.162907Q248.80624 36.58478 247.44687 38.069157Q246.0875 39.537907 243.80624 39.537907Q241.525 39.537907 240.15 38.069157Q238.79062 36.600407 238.79062 34.08478L238.79062 33.95978ZM241.61874 34.162907Q241.61874 35.662907 242.18124 36.45978Q242.74374 37.256657 243.80624 37.256657Q244.8375 37.256657 245.4 36.475407Q245.97812 35.67853 245.97812 33.95978Q245.97812 32.475407 245.4 31.662907Q244.8375 30.850407 243.79062 30.850407Q242.74374 30.850407 242.18124 31.662907Q241.61874 32.475407 241.61874 34.162907ZM253.2125 39.33478L250.38437 39.33478L250.38437 24.334782L253.2125 24.334782L253.2125 39.33478ZM258.61874 26.162907L258.61874 28.772282L260.41562 28.772282L260.41562 30.834782L258.61874 30.834782L258.61874 36.11603Q258.61874 36.694157 258.8375 36.95978Q259.05624 37.20978 259.69687 37.20978Q260.16562 37.20978 260.525 37.131657L260.525 39.27228Q259.69687 39.537907 258.82187 39.537907Q255.85312 39.537907 255.79062 36.537907L255.79062 30.834782L254.24374 30.834782L254.24374 28.772282L255.79062 28.772282L255.79062 26.162907L258.61874 26.162907Z" fill-rule="nonzero"/></svg>